# xmcd
#
# Track frame offsets: 
#        150
#        49276
#        66545
#        87950
#        124838
#
# Disc length: 2005 seconds
#
# Revision: 0
# Processed by: cddbd v1.5.2PL0 Copyright (c) Steve Scherf et al.
# Submitted via: ExactAudioCopy v0.99pb4
#
DISCID=4707d305
DTITLE=Юрий Наумов - Глазами звука (промо)
DYEAR=2010
DGENRE=Blues
TTITLE0=Этой ночью
TTITLE1=Звёздная ночь
TTITLE2=Никак не похоже на блюз
TTITLE3=Бэйби-блюз
TTITLE4=Сказка о Карле
EXTD=
EXTT0=
EXTT1=
EXTT2=
EXTT3=
EXTT4=
PLAYORDER=
